<svg id="Layer_1" data-name="Layer 1" xmlns="http://www.w3.org/2000/svg" viewBox="0 0 372.3438 96.0626">
  <g>
    <path id="fullLogo" d="M57.0174,86.985s3.9819-1.7,6.1641-8.2832a16.3342,16.3342,0,0,1,1.4205,8.1368c-1.7631.3959-7.5846.1464-7.5846.1464"/>
    <path id="fullLogo-2" data-name="fullLogo" d="M78.4063,49.3319s2.4285,13.2332-6.1741,13.6857c-8.3.4324-12.2086-12.049-12.2086-12.049S62.03,75.3592,73.6659,73.7525c13.1-1.8064,4.74-24.4206,4.74-24.4206"/>
    <path id="fullLogo-3" data-name="fullLogo" d="M15.2141,83.837a.0332.0332,0,0,1,.0133-.0033c9.7-2.2088,17.1353-13.5292,19.3142-18.0734l1.3872-2.8775.8349,3.0805a34.1325,34.1325,0,0,1,.9448,8.05c0,.499-.0133,1.008-.04,1.5236,3.3465.1264,5.735-.5522,7.222-2.0958,2.1324-2.2022,2.771-6.377,1.9793-12.7574-.3925-3.0539-1.52-7.9107-2.5215-12.1987-.5123-2.1922-.9947-4.2646-1.2874-5.7317-1.87-9.3743.4524-15.1959,2.7278-18.426a15.4436,15.4436,0,0,1,1.1643-1.4437A44.9893,44.9893,0,0,0,28.8,34.4538l4.085,4.737,1.67-1.5635a27.0328,27.0328,0,0,1,.4457,11.3038,47.2061,47.2061,0,0,0-4.6838-5.928L31.4245,41.14l-3.6825-4.278-.4258-.479A40.4329,40.4329,0,0,0,21.325,47.687l3.21,2.9407,1.8695,1.6932.6287-1.803a14.2,14.2,0,0,1,.2994,12.5047,22.8371,22.8371,0,0,0-2.8409-5.459L25.39,54.6l-4.78-4.3245C15.64,65.8,9,70.83,9,70.83a104.6386,104.6386,0,0,0,11.184-2.638,32.6354,32.6354,0,0,1-4.97,15.6449"/>
    <path id="fullLogo-4" data-name="fullLogo" d="M87.7378,27.8252l-11.4768.4857a12.3249,12.3249,0,0,1-.6121,4.0152c1.0712,4.6838.326,7.2253.326,7.2253-1.9194-4.4676-3.38-5.7084-3.38-5.7084-10.542-4.6805-16.4633,5.9047-15.8279,12.7342.5156,5.612,2.5548,13.06,4.1416,24.7465,1.3373,9.8334-3.6426,14.0848-9.371,15.06-.1231.0166-.2495.04-.3759.0665a.3909.3909,0,0,0-.09.0067,19.7409,19.7409,0,0,1-2.9574.1464.4084.4084,0,0,0-.11-.01c-.1164,0-.2262-.0167-.3426-.0167-.4458-.0266-.8849-.0731-1.3206-.1264-4.4577-.6154-14.4375-2.4284-24.7466-2.6779,6.0644-3.54,10.8081-9.67,13.4561-14.0116a34.2107,34.2107,0,0,1,.2761,4.288c0,.805-.0266,1.6533-.11,2.5182l-.1,1.1843,1.1876.1c4.7437.4125,8.1069-.4923,10.3058-2.7578,2.6879-2.801,3.5162-7.4682,2.6047-14.7068-.3925-3.1736-1.5468-8.097-2.5548-12.4382-.5023-2.1722-.978-4.2347-1.2674-5.6585-1.7066-8.5526.3326-13.7455,2.3452-16.593A12.2939,12.2939,0,0,1,53.86,21.0456c.04-.0067.08-.0166.1231-.0233L57.9016,9h1.2308L56.5011,20.5533c.6087-.1065,1.2275-.203,1.8529-.2994L61.7371,9.6021h1.2176L60.7391,19.9179c3.5029-.4491,7.3019-.7984,11.5134-1.1078a5.0242,5.0242,0,0,1,2.0691,2.159l11.0443-3.3965.4092,1.191-10.5586,4.095c.0831.2162.1663.4424.2328.672l11.5433-1.4338.193,1.2375L75.9849,25.57c.04.21.0732.4191.11.6287l11.65.3759ZM54.4852,32.9847a16.4233,16.4233,0,0,1,9.95-2.5881c.9348.07,1.7265-.1762.7185-.7085-2.7644-1.4571-9.208-.9614-11.4867.5921A7.2973,7.2973,0,0,0,50.72,37.3093a13.4612,13.4612,0,0,1,3.7657-4.3246"/>
    <rect id="fullLogo-5" data-name="fullLogo" x="100.6957" y="24.6184" width="1.7026" height="60.2283" style="fill: #4d4d4d"/>
    <path id="fullLogo-6" data-name="fullLogo" d="M121.0625,51.8477c0-4.53,3.4351-7.4068,7.6216-7.4068a6.6945,6.6945,0,0,1,5.9253,3.1992l-2.5332,1.3741a4.0547,4.0547,0,0,0-3.3921-1.8682,4.707,4.707,0,0,0,0,9.4038,4.8325,4.8325,0,0,0,3.0483-1.0947V53.7373h-3.7783V51.0752h6.8271v5.4961a7.9476,7.9476,0,0,1-6.0971,2.7051A7.2915,7.2915,0,0,1,121.0625,51.8477Z" style="fill: #4d4d4d"/>
    <path id="fullLogo-7" data-name="fullLogo" d="M137.1416,58.9971v-10.37h2.7266v1.417a4.4561,4.4561,0,0,1,3.3061-1.6748v2.6626a3.6205,3.6205,0,0,0-.7514-.0644,3.4716,3.4716,0,0,0-2.5547,1.1806v6.8487Z" style="fill: #4d4d4d"/>
    <path id="fullLogo-8" data-name="fullLogo" d="M151.0957,58.9971V57.9238a4.2922,4.2922,0,0,1-3.2847,1.3311,3.4545,3.4545,0,0,1-3.6069-3.4356,3.3176,3.3176,0,0,1,3.6069-3.3486,4.2633,4.2633,0,0,1,3.2847,1.2666V52.3418c0-1.0522-.9019-1.7393-2.2759-1.7393a4.3634,4.3634,0,0,0-3.0268,1.2237l-1.0308-1.8247a6.8036,6.8036,0,0,1,4.53-1.6319c2.3613,0,4.53.9449,4.53,3.9292v6.6983Zm0-2.49v-1.288a2.7259,2.7259,0,0,0-2.19-.9024c-1.0733,0-1.9537.5586-1.9537,1.5674,0,.9668.88,1.5244,1.9537,1.5244A2.7284,2.7284,0,0,0,151.0957,56.5068Z" style="fill: #4d4d4d"/>
    <path id="fullLogo-9" data-name="fullLogo" d="M163.5254,58.9971V52.7285a1.6826,1.6826,0,0,0-1.9107-1.9326,2.9531,2.9531,0,0,0-2.3618,1.2236v6.9776h-2.7265v-10.37h2.7265V49.98a4.7479,4.7479,0,0,1,3.6284-1.61,3.0165,3.0165,0,0,1,3.3707,3.3062v7.3213Z" style="fill: #4d4d4d"/>
    <path id="fullLogo-10" data-name="fullLogo" d="M168.7412,61.6592l1.2241-1.9746a4.1217,4.1217,0,0,0,3.2417,1.2881c1.31,0,2.8555-.58,2.8555-2.62V57.3008a4.0388,4.0388,0,0,1-3.1992,1.6318c-2.5977,0-4.5728-1.8252-4.5728-5.2812,0-3.3921,1.9536-5.2818,4.5728-5.2818a3.9944,3.9944,0,0,1,3.1992,1.5889V48.6274h2.748v9.6617c0,3.95-3.0488,4.916-5.6035,4.916A6.2836,6.2836,0,0,1,168.7412,61.6592Zm7.3213-6.333v-3.35a2.957,2.957,0,0,0-2.34-1.1807,2.5708,2.5708,0,0,0-2.6192,2.8555,2.5708,2.5708,0,0,0,2.6192,2.8554A3.0219,3.0219,0,0,0,176.0625,55.3262Z" style="fill: #4d4d4d"/>
    <path id="fullLogo-11" data-name="fullLogo" d="M180.8491,53.8018a5.2777,5.2777,0,0,1,5.3672-5.4322c3.0918,0,5.1958,2.3189,5.1958,5.7115v.6005h-7.7075a2.7941,2.7941,0,0,0,2.9844,2.4043,4.4136,4.4136,0,0,0,2.769-1.03l1.2026,1.7607a6.4656,6.4656,0,0,1-4.2724,1.4385A5.252,5.252,0,0,1,180.8491,53.8018Zm5.3672-3.2637a2.492,2.492,0,0,0-2.5547,2.2969h5.1094A2.4013,2.4013,0,0,0,186.2163,50.5381Z" style="fill: #4d4d4d"/>
    <path id="fullLogo-12" data-name="fullLogo" d="M193.3862,58.9971v-10.37h2.7266v1.417a4.4565,4.4565,0,0,1,3.3061-1.6748v2.6626a3.6192,3.6192,0,0,0-.7514-.0644,3.4718,3.4718,0,0,0-2.5547,1.1806v6.8487Z" style="fill: #4d4d4d"/>
    <path id="fullLogo-13" data-name="fullLogo" d="M205.9873,51.8477a7.2761,7.2761,0,0,1,7.6216-7.4068,6.5553,6.5553,0,0,1,5.99,3.4995L216.98,49.2285a3.881,3.881,0,0,0-3.3706-2.0825,4.707,4.707,0,0,0,0,9.4038,3.84,3.84,0,0,0,3.3706-2.083l2.6191,1.2666a6.5946,6.5946,0,0,1-5.99,3.5215A7.2762,7.2762,0,0,1,205.9873,51.8477Z" style="fill: #4d4d4d"/>
    <path id="fullLogo-14" data-name="fullLogo" d="M220.6924,53.8018a5.4854,5.4854,0,1,1,5.4746,5.4531A5.2523,5.2523,0,0,1,220.6924,53.8018Zm8.1367,0a2.6723,2.6723,0,1,0-5.3027,0c0,1.6318.9448,3.0273,2.6406,3.0273A2.7441,2.7441,0,0,0,228.8291,53.8018Z" style="fill: #4d4d4d"/>
    <path id="fullLogo-15" data-name="fullLogo" d="M233.68,58.9971v-14.32h2.7265v5.2813a3.9944,3.9944,0,0,1,3.1988-1.5889c2.6411,0,4.5947,2.0611,4.5947,5.4536,0,3.4561-1.9751,5.4317-4.5947,5.4317a4.0264,4.0264,0,0,1-3.1988-1.5889v1.3311Zm5.0669-2.168c1.5883,0,2.6406-1.2031,2.6406-3.0059s-1.0523-3.0273-2.6406-3.0273a3.0083,3.0083,0,0,0-2.34,1.2021v3.6709A3.0337,3.0337,0,0,0,238.7471,56.8291Z" style="fill: #4d4d4d"/>
    <path id="fullLogo-16" data-name="fullLogo" d="M246.26,58.9971v-14.32h2.7265v5.2813a3.9942,3.9942,0,0,1,3.1987-1.5889c2.6412,0,4.5948,2.0611,4.5948,5.4536,0,3.4561-1.9751,5.4317-4.5948,5.4317a4.0261,4.0261,0,0,1-3.1987-1.5889v1.3311Zm5.0668-2.168c1.5884,0,2.6407-1.2031,2.6407-3.0059s-1.0523-3.0273-2.6407-3.0273a3.0082,3.0082,0,0,0-2.34,1.2021v3.6709A3.0337,3.0337,0,0,0,251.3271,56.8291Z" style="fill: #4d4d4d"/>
    <path id="fullLogo-17" data-name="fullLogo" d="M121.75,78.8135v-14.32h3.0488v14.32Z" style="fill: #4d4d4d"/>
    <path id="fullLogo-18" data-name="fullLogo" d="M134.5659,78.8135V72.5449a1.6826,1.6826,0,0,0-1.9106-1.9326,2.9542,2.9542,0,0,0-2.3618,1.2236v6.9776h-2.7266V68.4443h2.7266v1.3526a4.7462,4.7462,0,0,1,3.6284-1.61,3.0161,3.0161,0,0,1,3.3706,3.3057v7.3213Z" style="fill: #4d4d4d"/>
    <path id="fullLogo-19" data-name="fullLogo" d="M139.0947,77.4609l1.1812-1.9111a5.9311,5.9311,0,0,0,3.5849,1.417c1.1812,0,1.7393-.4717,1.7393-1.1162,0-1.7178-6.1616-.3223-6.1616-4.4014,0-1.7383,1.5244-3.2627,4.251-3.2627a6.6218,6.6218,0,0,1,4.1865,1.417l-1.0952,1.8672a4.3765,4.3765,0,0,0-3.07-1.2021c-.9878,0-1.6318.4511-1.6318,1.03,0,1.5459,6.14.2578,6.14,4.4444,0,1.89-1.61,3.3281-4.4868,3.3281A6.9827,6.9827,0,0,1,139.0947,77.4609Z" style="fill: #4d4d4d"/>
    <path id="fullLogo-20" data-name="fullLogo" d="M150.7729,76.2373v-5.41h-1.7172V68.4443h1.7172V65.61h2.7481v2.8339h2.104v2.3828h-2.104v4.68c0,.6446.3437,1.1387.9448,1.1387a1.49,1.49,0,0,0,.9448-.3008l.58,2.0606a3.3657,3.3657,0,0,1-2.2758.666C151.8037,79.0713,150.7729,78.084,150.7729,76.2373Z" style="fill: #4d4d4d"/>
    <path id="fullLogo-21" data-name="fullLogo" d="M157.2134,65.6963a1.6319,1.6319,0,1,1,1.6318,1.6308A1.6443,1.6443,0,0,1,157.2134,65.6963Zm.2793,13.1172V68.4443h2.7265V78.8135Z" style="fill: #4d4d4d"/>
    <path id="fullLogo-22" data-name="fullLogo" d="M163.46,76.2373v-5.41h-1.7172V68.4443H163.46V65.61h2.7481v2.8339h2.104v2.3828h-2.104v4.68c0,.6446.3437,1.1387.9448,1.1387a1.49,1.49,0,0,0,.9448-.3008l.58,2.0606a3.3657,3.3657,0,0,1-2.2758.666C164.4912,79.0713,163.46,78.084,163.46,76.2373Z" style="fill: #4d4d4d"/>
    <path id="fullLogo-23" data-name="fullLogo" d="M177.1787,78.8135v-1.31a4.8545,4.8545,0,0,1-3.65,1.5674c-2.2759,0-3.3491-1.2451-3.3491-3.2637V68.4443h2.7265v6.29a1.6674,1.6674,0,0,0,1.9107,1.9111,3.0516,3.0516,0,0,0,2.3618-1.1816v-7.02h2.7266V78.8135Z" style="fill: #4d4d4d"/>
    <path id="fullLogo-24" data-name="fullLogo" d="M183.146,76.2373v-5.41h-1.7173V68.4443h1.7173V65.61h2.748v2.8339h2.104v2.3828h-2.104v4.68c0,.6446.3438,1.1387.9449,1.1387a1.49,1.49,0,0,0,.9448-.3008l.58,2.0606a3.3661,3.3661,0,0,1-2.2759.666C184.1768,79.0713,183.146,78.084,183.146,76.2373Z" style="fill: #4d4d4d"/>
    <path id="fullLogo-25" data-name="fullLogo" d="M189.2,73.6182a5.2773,5.2773,0,0,1,5.3672-5.4317c3.0918,0,5.1958,2.3184,5.1958,5.711v.6005h-7.7075a2.7941,2.7941,0,0,0,2.9844,2.4043,4.4136,4.4136,0,0,0,2.769-1.03l1.2026,1.7607a6.4656,6.4656,0,0,1-4.2724,1.4385A5.252,5.252,0,0,1,189.2,73.6182Zm5.3672-3.2637a2.492,2.492,0,0,0-2.5547,2.2969h5.1094A2.4013,2.4013,0,0,0,194.5669,70.3545Z" style="fill: #4d4d4d"/>
    <path id="fullLogo-26" data-name="fullLogo" d="M207.8335,78.8135V70.8271h-1.7173V68.4443h1.7173v-.5586a3.3424,3.3424,0,0,1,3.5-3.6064,3.6881,3.6881,0,0,1,2.7051.9658l-1.03,1.61a1.521,1.521,0,0,0-1.1382-.43c-.7514,0-1.2881.4941-1.2881,1.46v.5586h2.104v2.3828h-2.104v7.9864Z" style="fill: #4d4d4d"/>
    <path id="fullLogo-27" data-name="fullLogo" d="M213.5869,73.6182a5.4854,5.4854,0,1,1,5.4746,5.4531A5.2519,5.2519,0,0,1,213.5869,73.6182Zm8.1367,0a2.6723,2.6723,0,1,0-5.3027,0c0,1.6318.9448,3.0273,2.6406,3.0273A2.7441,2.7441,0,0,0,221.7236,73.6182Z" style="fill: #4d4d4d"/>
    <path id="fullLogo-28" data-name="fullLogo" d="M226.5747,78.8135V68.4443h2.7266v1.417a4.4545,4.4545,0,0,1,3.3061-1.6748v2.6621a3.62,3.62,0,0,0-.7514-.0644,3.4718,3.4718,0,0,0-2.5547,1.1806v6.8487Z" style="fill: #4d4d4d"/>
    <path id="fullLogo-29" data-name="fullLogo" d="M238.8965,76.7949l1.6533-2.3183a6.2791,6.2791,0,0,0,4.5513,1.9326c1.6748,0,2.4907-.7735,2.4907-1.5889,0-2.5332-8.2441-.7949-8.2441-6.1836,0-2.3828,2.061-4.3574,5.4316-4.3574a7.9658,7.9658,0,0,1,5.582,1.9961l-1.6963,2.2334a6.1468,6.1468,0,0,0-4.165-1.5674c-1.31,0-2.04.5791-2.04,1.4385,0,2.2754,8.2227.751,8.2227,6.0967,0,2.6191-1.8677,4.5947-5.7319,4.5947A8.1633,8.1633,0,0,1,238.8965,76.7949Z" style="fill: #4d4d4d"/>
    <path id="fullLogo-30" data-name="fullLogo" d="M252.0132,73.6182a5.2773,5.2773,0,0,1,5.3672-5.4317c3.0918,0,5.1958,2.3184,5.1958,5.711v.6005h-7.7075a2.794,2.794,0,0,0,2.9843,2.4043,4.4139,4.4139,0,0,0,2.7691-1.03l1.2026,1.7607a6.4659,6.4659,0,0,1-4.2725,1.4385A5.252,5.252,0,0,1,252.0132,73.6182Zm5.3672-3.2637a2.492,2.492,0,0,0-2.5547,2.2969h5.1094A2.4013,2.4013,0,0,0,257.38,70.3545Z" style="fill: #4d4d4d"/>
    <path id="fullLogo-31" data-name="fullLogo" d="M271.5493,78.8135V72.5449a1.6826,1.6826,0,0,0-1.9106-1.9326,2.9542,2.9542,0,0,0-2.3618,1.2236v6.9776H264.55V68.4443h2.7266v1.3526a4.7462,4.7462,0,0,1,3.6284-1.61,3.0161,3.0161,0,0,1,3.3706,3.3057v7.3213Z" style="fill: #4d4d4d"/>
    <path id="fullLogo-32" data-name="fullLogo" d="M276.7007,65.6963a1.6319,1.6319,0,1,1,1.6318,1.6308A1.6443,1.6443,0,0,1,276.7007,65.6963Zm.2793,13.1172V68.4443h2.7265V78.8135Z" style="fill: #4d4d4d"/>
    <path id="fullLogo-33" data-name="fullLogo" d="M281.7456,73.6182a5.4854,5.4854,0,1,1,5.4746,5.4531A5.2519,5.2519,0,0,1,281.7456,73.6182Zm8.1367,0a2.6723,2.6723,0,1,0-5.3027,0c0,1.6318.9443,3.0273,2.6406,3.0273A2.7441,2.7441,0,0,0,289.8823,73.6182Z" style="fill: #4d4d4d"/>
    <path id="fullLogo-34" data-name="fullLogo" d="M294.7334,78.8135V68.4443H297.46v1.417a4.4545,4.4545,0,0,1,3.3061-1.6748v2.6621a3.6209,3.6209,0,0,0-.7515-.0644,3.4716,3.4716,0,0,0-2.5546,1.1806v6.8487Z" style="fill: #4d4d4d"/>
    <path id="fullLogo-35" data-name="fullLogo" d="M308.0215,78.8135v-14.32H311.07V76.13h6.0547v2.6836Z" style="fill: #4d4d4d"/>
    <path id="fullLogo-36" data-name="fullLogo" d="M318.9053,65.6963a1.6318,1.6318,0,1,1,1.6318,1.6308A1.6443,1.6443,0,0,1,318.9053,65.6963Zm.2793,13.1172V68.4443h2.7265V78.8135Z" style="fill: #4d4d4d"/>
    <path id="fullLogo-37" data-name="fullLogo" d="M327.2993,78.8135l-4.165-10.3692h2.92l2.7051,7.2129,2.7051-7.2129h2.9414l-4.1651,10.3692Z" style="fill: #4d4d4d"/>
    <path id="fullLogo-38" data-name="fullLogo" d="M335.3491,65.6963a1.6319,1.6319,0,1,1,1.6319,1.6308A1.6444,1.6444,0,0,1,335.3491,65.6963Zm.2793,13.1172V68.4443h2.7266V78.8135Z" style="fill: #4d4d4d"/>
    <path id="fullLogo-39" data-name="fullLogo" d="M348.0586,78.8135V72.5449a1.6827,1.6827,0,0,0-1.9107-1.9326,2.9545,2.9545,0,0,0-2.3618,1.2236v6.9776H341.06V68.4443h2.7265v1.3526a4.7466,4.7466,0,0,1,3.6285-1.61,3.0161,3.0161,0,0,1,3.3706,3.3057v7.3213Z" style="fill: #4d4d4d"/>
    <path id="fullLogo-40" data-name="fullLogo" d="M353.2744,81.4756l1.2241-1.9746a4.1217,4.1217,0,0,0,3.2417,1.2881c1.31,0,2.8555-.58,2.8555-2.62V77.1172a4.0388,4.0388,0,0,1-3.1992,1.6318c-2.5977,0-4.5728-1.8252-4.5728-5.2812,0-3.3926,1.9536-5.2813,4.5728-5.2813a3.9919,3.9919,0,0,1,3.1992,1.5889V68.4443h2.7481v9.6612c0,3.95-3.0489,4.916-5.6036,4.916A6.2836,6.2836,0,0,1,353.2744,81.4756Zm7.3213-6.333v-3.35a2.9581,2.9581,0,0,0-2.34-1.1807,2.8661,2.8661,0,0,0,0,5.7109A3.0219,3.0219,0,0,0,360.5957,75.1426Z" style="fill: #4d4d4d"/>
    <path id="fullLogo-41" data-name="fullLogo" d="M125.8638,37.41l-1.27-4.8047-1.26,4.8047h-1.2207l-1.8653-6.5137h1.2793l1.27,5.0195,1.3476-5.0195h.9082l1.3477,5.0195,1.26-5.0195H128.94L127.0845,37.41Z" style="fill: #4d4d4d"/>
    <path id="fullLogo-42" data-name="fullLogo" d="M135.7681,37.41l-.4785-1.25h-2.9883l-.4785,1.25h-1.2989l2.5586-6.5137h1.4258l2.5586,6.5137Zm-1.9727-5.3614-1.1719,3.1055h2.3438Z" style="fill: #4d4d4d"/>
    <path id="fullLogo-43" data-name="fullLogo" d="M139.2085,36.4922l.6348-.8789a2.81,2.81,0,0,0,2.06.8984c.9375,0,1.3086-.459,1.3086-.8887,0-1.3671-3.7988-.5175-3.7988-2.92,0-1.0742.9472-1.9043,2.373-1.9043a3.3894,3.3894,0,0,1,2.4414.9082l-.6543.85a2.6477,2.6477,0,0,0-1.8847-.7421c-.6739,0-1.1036.3222-1.1036.8105,0,1.2109,3.7891.459,3.7891,2.8906,0,1.084-.7617,2.0117-2.52,2.0117A3.4849,3.4849,0,0,1,139.2085,36.4922Z" style="fill: #4d4d4d"/>
    <path id="fullLogo-44" data-name="fullLogo" d="M151.9077,37.41V34.5684H148.519V37.41h-1.1425V30.8965h1.1425v2.666h3.3887v-2.666H153.05V37.41Z" style="fill: #4d4d4d"/>
    <path id="fullLogo-45" data-name="fullLogo" d="M156.3833,37.41V30.8965h1.1426V37.41Z" style="fill: #4d4d4d"/>
    <path id="fullLogo-46" data-name="fullLogo" d="M165.4028,37.41l-3.3984-4.6485V37.41h-1.1426V30.8965h1.1719l3.33,4.5215V30.8965h1.1425V37.41Z" style="fill: #4d4d4d"/>
    <path id="fullLogo-47" data-name="fullLogo" d="M169.5464,34.1582a3.2854,3.2854,0,0,1,3.418-3.3691,3.062,3.062,0,0,1,2.6269,1.3574l-.9375.5273a2.0738,2.0738,0,0,0-1.6894-.8691,2.3612,2.3612,0,0,0,0,4.7168,2.3878,2.3878,0,0,0,1.5429-.586V34.92H172.564V33.9141H175.65v2.4414a3.5331,3.5331,0,0,1-2.6855,1.1816A3.2934,3.2934,0,0,1,169.5464,34.1582Z" style="fill: #4d4d4d"/>
    <path id="fullLogo-48" data-name="fullLogo" d="M180.2915,37.41V31.9023h-1.9727V30.8965h5.0879v1.0058h-1.9726V37.41Z" style="fill: #4d4d4d"/>
    <path id="fullLogo-49" data-name="fullLogo" d="M185.7837,34.1582a3.33,3.33,0,1,1,3.33,3.3691A3.2314,3.2314,0,0,1,185.7837,34.1582Zm5.4883,0a2.1663,2.1663,0,1,0-4.3164,0,2.1663,2.1663,0,1,0,4.3164,0Z" style="fill: #4d4d4d"/>
    <path id="fullLogo-50" data-name="fullLogo" d="M200.0342,37.41l-3.3985-4.6485V37.41h-1.1425V30.8965h1.1718l3.33,4.5215V30.8965h1.1426V37.41Z" style="fill: #4d4d4d"/>
    <path id="fullLogo-51" data-name="fullLogo" d="M208.51,36.4922l.6347-.8789a2.81,2.81,0,0,0,2.0606.8984c.9375,0,1.3086-.459,1.3086-.8887,0-1.3671-3.7989-.5175-3.7989-2.92,0-1.0742.9473-1.9043,2.3731-1.9043a3.39,3.39,0,0,1,2.4414.9082l-.6543.85a2.648,2.648,0,0,0-1.8848-.7421c-.6738,0-1.1035.3222-1.1035.8105,0,1.2109,3.7891.459,3.7891,2.8906,0,1.084-.7617,2.0117-2.52,2.0117A3.4847,3.4847,0,0,1,208.51,36.4922Z" style="fill: #4d4d4d"/>
    <path id="fullLogo-52" data-name="fullLogo" d="M218.1333,37.41V31.9023h-1.9727V30.8965h5.0879v1.0058h-1.9726V37.41Z" style="fill: #4d4d4d"/>
    <path id="fullLogo-53" data-name="fullLogo" d="M228.0889,37.41l-.4785-1.25h-2.9883l-.4785,1.25h-1.2989l2.5586-6.5137h1.4258l2.5586,6.5137Zm-1.9727-5.3614-1.1719,3.1055h2.3438Z" style="fill: #4d4d4d"/>
    <path id="fullLogo-54" data-name="fullLogo" d="M232.9653,37.41V31.9023h-1.9726V30.8965h5.0879v1.0058h-1.9727V37.41Z" style="fill: #4d4d4d"/>
    <path id="fullLogo-55" data-name="fullLogo" d="M238.9946,37.41V30.8965h4.4629v1.0058h-3.32v1.6895h3.252v1.0059h-3.252v1.8066h3.32V37.41Z" style="fill: #4d4d4d"/>
    <path id="fullLogo-56" data-name="fullLogo" d="M251.0361,34.8418V30.8965h1.1524v3.9062a1.6656,1.6656,0,1,0,3.33,0V30.8965h1.1523V34.832a2.82,2.82,0,0,1-5.6348.01Z" style="fill: #4d4d4d"/>
    <path id="fullLogo-57" data-name="fullLogo" d="M264.5449,37.41l-3.3984-4.6485V37.41h-1.1426V30.8965h1.1719l3.33,4.5215V30.8965h1.1425V37.41Z" style="fill: #4d4d4d"/>
    <path id="fullLogo-58" data-name="fullLogo" d="M268.981,37.41V30.8965h1.1425V37.41Z" style="fill: #4d4d4d"/>
    <path id="fullLogo-59" data-name="fullLogo" d="M275.335,37.41l-2.5586-6.5137h1.2988l1.9727,5.2734,1.9726-5.2734h1.2988L276.7607,37.41Z" style="fill: #4d4d4d"/>
    <path id="fullLogo-60" data-name="fullLogo" d="M281.9785,37.41V30.8965h4.4629v1.0058h-3.32v1.6895h3.2519v1.0059h-3.2519v1.8066h3.32V37.41Z" style="fill: #4d4d4d"/>
    <path id="fullLogo-61" data-name="fullLogo" d="M293.2812,37.41l-1.4453-2.4317h-1.1328V37.41h-1.1426V30.8965h2.8614a1.9773,1.9773,0,0,1,2.1289,2.041,1.8266,1.8266,0,0,1-1.543,1.9141L294.6,37.41Zm.0977-4.4727a1.027,1.027,0,0,0-1.1133-1.0352h-1.5625v2.07h1.5625A1.027,1.027,0,0,0,293.3789,32.9375Z" style="fill: #4d4d4d"/>
    <path id="fullLogo-62" data-name="fullLogo" d="M297.22,36.4922l.6348-.8789a2.81,2.81,0,0,0,2.06.8984c.9375,0,1.3086-.459,1.3086-.8887,0-1.3671-3.7988-.5175-3.7988-2.92,0-1.0742.9473-1.9043,2.373-1.9043a3.3892,3.3892,0,0,1,2.4414.9082l-.6543.85a2.6477,2.6477,0,0,0-1.8847-.7421c-.6738,0-1.1035.3222-1.1035.8105,0,1.2109,3.789.459,3.789,2.8906,0,1.084-.7617,2.0117-2.5195,2.0117A3.4849,3.4849,0,0,1,297.22,36.4922Z" style="fill: #4d4d4d"/>
    <path id="fullLogo-63" data-name="fullLogo" d="M305.3882,37.41V30.8965h1.1426V37.41Z" style="fill: #4d4d4d"/>
    <path id="fullLogo-64" data-name="fullLogo" d="M311.4194,37.41V31.9023h-1.9726V30.8965h5.0879v1.0058H312.562V37.41Z" style="fill: #4d4d4d"/>
    <path id="fullLogo-65" data-name="fullLogo" d="M319.2944,37.41V34.7051l-2.5293-3.8086h1.3086l1.7969,2.793,1.7773-2.793h1.3086l-2.5195,3.8086V37.41Z" style="fill: #4d4d4d"/>
  </g>
</svg>
