<svg width="100%" height="100%" id="svg" viewBox="0 0 1440 490" xmlns="http://www.w3.org/2000/svg" class="transition duration-300 ease-in-out delay-150"><defs><linearGradient id="gradient" x1="0%" y1="50%" x2="100%" y2="50%"><stop offset="5%" stop-color="#a60f2d"></stop><stop offset="95%" stop-color="#ca1237"></stop></linearGradient></defs><path d="M 0,500 C 0,500 0,250 0,250 C 68.88285812435589,238.69872895912056 137.76571624871178,227.39745791824114 207,240 C 276.2342837512882,252.60254208175886 345.81999312950876,289.108897286156 403,285 C 460.18000687049124,280.891102713844 504.9543112332533,236.16695293713497 582,240 C 659.0456887667467,243.83304706286503 768.3627619374786,296.22329096530405 848,320 C 927.6372380625214,343.77670903469595 977.5946410168328,338.9398832016489 1042,333 C 1106.4053589831672,327.0601167983511 1185.2586739951905,320.0171762281003 1254,306 C 1322.7413260048095,291.9828237718997 1381.3706630024049,270.99141188594984 1440,250 C 1440,250 1440,500 1440,500 Z" stroke="none" stroke-width="0" fill="url(#gradient)" fill-opacity="1" class="transition-all duration-300 ease-in-out delay-150 path-0"></path></svg>